<svg width="298" height="68" viewBox="0 0 298 68" fill="none" xmlns="http://www.w3.org/2000/svg">
<path d="M282.19 46.0824C274.629 46.0824 270.28 41.0417 270.28 32.3441C270.28 23.7947 274.481 19.0506 281.992 19.0506C286.193 19.0506 289.208 20.5331 290.591 23.2017H290.789V10.007H297.213V45.3411H290.789V41.8819H290.591C288.911 44.7481 286.292 46.0824 282.19 46.0824ZM276.902 32.2453C276.902 37.5825 279.126 40.251 283.524 40.251C287.972 40.251 290.443 37.4342 290.443 32.3935C290.443 27.4517 288.021 24.8819 283.376 24.8819C278.928 24.8819 276.902 27.1552 276.902 32.2453Z" fill="white"/>
<path d="M252.93 45.3412V19.7425H259.354V23.696H259.552C260.244 20.5332 262.072 19.0013 265.087 19.0013C266.075 19.0013 267.36 19.1495 268.151 19.446V25.2774C267.31 25.0797 266.371 24.9809 264.79 24.9809C260.886 24.9809 259.354 26.8588 259.354 32.5419V45.3412H252.93Z" fill="white"/>
<path d="M241.171 45.3412L240.38 41.9808C238.453 44.6 235.34 46.0825 230.991 46.0825C225.258 46.0825 221.453 43.5128 221.453 37.9779C221.453 32.1465 225.703 29.5274 232.424 29.5274C235.488 29.5274 238.305 30.071 240.38 31.0099V30.6146C240.38 26.5623 238.453 24.882 234.055 24.882C230.2 24.882 228.322 26.0187 228.322 28.3907H221.898C221.898 21.8675 225.753 19.0013 234.5 19.0013C243.098 19.0013 246.805 22.164 246.805 30.6146V45.3412H241.171ZM228.026 37.9285C228.026 40.0041 229.755 41.1901 232.77 41.1901C235.834 41.1901 238.305 39.9546 240.38 37.3849V35.5564C238.404 34.7657 235.784 34.2221 233.659 34.2221C230.25 34.2221 228.026 35.6058 228.026 37.9285Z" fill="white"/>
<path d="M195.113 45.3411V10.007H201.538V29.3296L211.767 19.7424H219.971L209.494 29.4778L220.415 45.3411H212.607L204.898 33.7772L201.538 36.8906V45.3411H195.113Z" fill="white"/>
<path d="M178.763 46.0824C171.152 46.0824 166.705 42.9196 166.26 36.7423H172.783C173.178 39.5098 175.056 40.7946 179.207 40.7946C182.271 40.7946 183.952 40.0534 183.952 38.5214C183.952 36.8412 182.716 36.1987 179.603 35.7045L176.242 35.1609C169.324 34.0243 166.705 31.8005 166.705 27.4023C166.705 21.9662 170.757 19.0506 178.318 19.0506C185.928 19.0506 190.178 22.3122 190.524 28.3906H184.001C183.457 25.3267 181.975 24.2889 178.17 24.2889C174.908 24.2889 173.228 25.0796 173.228 26.7104C173.228 28.0447 174.018 28.6871 177.824 29.379L180.888 29.9226C187.608 31.1086 190.376 33.0854 190.376 37.4836C190.376 43.1173 186.472 46.0824 178.763 46.0824Z" fill="white"/>
<path d="M155.251 45.3412V19.7425H161.675V45.3412H155.251ZM153.966 13.664C153.966 11.7367 155.201 9.66113 158.463 9.66113C161.725 9.66113 162.96 11.7367 162.96 13.664C162.96 15.4925 161.725 17.6669 158.463 17.6669C155.201 17.6669 153.966 15.4925 153.966 13.664Z" fill="white"/>
<path d="M130.295 46.0825C120.411 46.0825 113.641 39.0156 113.641 27.6C113.641 16.1349 120.51 9.11751 131.678 9.11751C140.969 9.11751 147.443 13.9605 148.135 22.4605H141.117C140.425 18.1611 136.521 15.3936 131.332 15.3936C124.513 15.3936 120.263 20.1872 120.263 27.6C120.263 35.0127 124.562 39.8063 131.184 39.8063C135.385 39.8063 139.635 37.9284 140.87 32.7889H132.222V26.4634H148.283V45.3412H143.44L142.797 36.693H142.6C141.908 42.2278 137.164 46.0825 130.295 46.0825Z" fill="white"/>
<path d="M100.243 26.2606C99.9326 18.5069 93.6168 12.1896 85.8632 11.8795C85.657 11.8713 85.4509 11.8664 85.2464 11.8664C78.0749 11.8664 71.9916 16.9536 70.5586 23.7854C64.698 14.7653 54.6275 9.24277 43.7901 9.24277C37.227 9.24277 30.9228 11.2199 25.5602 14.9616C20.4582 18.5201 16.5467 23.4194 14.2199 29.1514H5.92374C3.43867 29.1514 1.33123 30.5893 0.424267 32.9029C-0.482692 35.2181 0.0878676 37.7032 1.91168 39.3917L2.90604 40.3119C4.00099 41.3244 5.42574 41.8834 6.9181 41.8834H21.5317C24.1866 44.4245 27.3791 47.2625 31.1999 49.52L29.3777 51.5829C27.7947 53.3771 27.4269 55.7286 28.3949 57.8756C29.3678 60.0308 31.4637 61.4243 33.7344 61.4243C34.4798 61.4243 35.2301 61.2775 35.9639 60.9889L53.3247 54.1702C54.3076 53.7844 55.1716 53.1396 55.8214 52.3069L63.9593 41.8818H85.1491H85.2448H85.3536C89.4547 41.8504 93.2738 40.1998 96.1068 37.2299C98.9382 34.2633 100.406 30.3667 100.243 26.2573V26.2606ZM12.5478 34.6624L12.5083 34.852C12.4538 35.1241 12.4192 35.4077 12.4027 35.6979L12.3994 35.7161C12.3763 35.8661 12.3516 36.0179 12.3302 36.1696C12.2692 36.6033 11.8684 36.9298 11.3968 36.9298H6.9148C6.67404 36.9298 6.44483 36.8407 6.26838 36.6758L5.27403 35.7573C4.95742 35.4638 4.87661 35.1125 5.03492 34.7118C5.19158 34.3111 5.49005 34.1066 5.92044 34.1066H12.0927C12.2856 34.1066 12.4011 34.2138 12.4522 34.2781C12.5033 34.3425 12.5841 34.476 12.5445 34.6624H12.5478ZM24.5824 21.8693C24.899 21.5477 25.2271 21.2311 25.5586 20.9244C25.8983 20.6127 26.3386 20.4396 26.8019 20.4396C27.2967 20.4396 27.7617 20.6325 28.1113 20.9821L40.9225 33.7933C41.4518 34.3227 41.6101 35.1125 41.3232 35.8051C41.0363 36.4977 40.3668 36.9446 39.6181 36.9446H37.8454C37.3524 36.9446 36.889 36.7533 36.541 36.4037L24.6005 24.4632C23.8848 23.7475 23.8782 22.5833 24.5857 21.8676L24.5824 21.8693ZM29.9846 42.7129C29.7603 42.5397 29.8081 42.3122 29.8394 42.2231C29.8708 42.1308 29.9747 41.918 30.2632 41.918H37.016C37.2518 41.918 37.3524 42.0846 37.3837 42.1572C37.415 42.2297 37.4744 42.4144 37.3177 42.5908L34.7832 45.4601C34.6974 45.5574 34.5754 45.6118 34.4468 45.6118C34.3709 45.6118 34.3 45.5937 34.2341 45.5558C32.8077 44.7494 31.4175 43.8194 29.9829 42.7129H29.9846ZM57.1241 42.5892L51.9181 49.2595C51.8126 49.393 51.6741 49.4969 51.5158 49.5596L34.1549 56.3783C34.0016 56.4393 33.8564 56.4706 33.7361 56.4706C33.3123 56.4706 33.0187 56.0732 32.9132 55.839C32.75 55.4763 32.8011 55.1926 33.0913 54.8645L44.4877 42.0731C44.5718 41.9774 44.6938 41.923 44.8224 41.923L56.8075 41.9378C57.035 41.9378 57.1373 42.0961 57.1702 42.1654C57.2032 42.233 57.2659 42.4111 57.1257 42.5908L57.1241 42.5892ZM60.0544 35.8051C59.7675 36.4977 59.0979 36.9446 58.3493 36.9446H56.5766C56.0835 36.9446 55.6202 36.7533 55.2706 36.4037L36.4042 17.5373C35.9342 17.0674 35.7545 16.4028 35.9243 15.7613C36.0942 15.1166 36.5806 14.6268 37.2237 14.4504C37.7217 14.3135 38.2296 14.1898 38.7326 14.081C38.8629 14.053 38.9964 14.0381 39.1284 14.0381C39.6231 14.0381 40.0881 14.2294 40.436 14.5773L59.652 33.7933C60.1814 34.3227 60.3397 35.1125 60.0527 35.8051H60.0544ZM92.5219 33.8131C90.6272 35.8002 88.0712 36.9067 85.3338 36.9281C85.3305 36.9281 85.1871 36.9281 85.1871 36.9281C85.1838 36.9281 76.1372 36.9281 76.1372 36.9281C75.6129 36.9281 75.1858 36.501 75.1858 35.9766V27.6178L75.1924 26.7982C75.2336 21.2971 79.7437 16.8217 85.2448 16.8217C85.3833 16.8217 85.5235 16.8249 85.662 16.8299C90.8531 17.0377 95.0828 21.2674 95.2906 26.4585C95.4011 29.214 94.4166 31.8261 92.5219 33.8131Z" fill="#05D939"/>
<path d="M88.5791 28.6533C90.4771 28.6533 92.0157 27.1147 92.0157 25.2167C92.0157 23.3188 90.4771 21.7802 88.5791 21.7802C86.6812 21.7802 85.1426 23.3188 85.1426 25.2167C85.1426 27.1147 86.6812 28.6533 88.5791 28.6533Z" fill="#05D939"/>
</svg>
