<svg width="115" height="60" viewBox="0 0 115 60" fill="none" xmlns="http://www.w3.org/2000/svg">
<path d="M114.183 19.3977C113.83 10.5597 106.636 3.35889 97.8036 3.00552C97.5688 2.99612 97.334 2.99048 97.1011 2.99048C88.9323 2.99048 82.0031 8.78912 80.3708 16.5764C73.6952 6.29486 62.2242 0 49.8797 0C42.404 0 35.2231 2.25367 29.1147 6.51854C23.3032 10.5748 18.8478 16.1591 16.1974 22.6927H6.74752C3.91687 22.6927 1.51635 24.3317 0.483267 26.9688C-0.549817 29.6078 0.100087 32.4404 2.17753 34.3652L3.31016 35.414C4.55738 36.5681 6.18026 37.2053 7.88016 37.2053H24.526C27.5501 40.1018 31.1866 43.3366 35.5387 45.9098L33.4631 48.2612C31.6599 50.3063 31.241 52.9866 32.3436 55.4339C33.4518 57.8905 35.8392 59.4788 38.4257 59.4788C39.2747 59.4788 40.1293 59.3115 40.9652 58.9826L60.7403 51.2104C61.8598 50.7705 62.844 50.0356 63.5841 49.0864L72.8537 37.2034H96.9903H97.0993H97.2232C101.895 37.1677 106.245 35.2862 109.472 31.901C112.697 28.5195 114.369 24.078 114.183 19.394V19.3977ZM14.2928 28.9744L14.2477 29.1906C14.1857 29.5007 14.1463 29.824 14.1275 30.1548L14.1237 30.1755C14.0974 30.3465 14.0693 30.5195 14.0449 30.6924C13.9754 31.1867 13.5189 31.5589 12.9817 31.5589H7.8764C7.60216 31.5589 7.34107 31.4574 7.14009 31.2694L6.00745 30.2225C5.64681 29.8879 5.55478 29.4875 5.7351 29.0308C5.91354 28.574 6.25352 28.341 6.74376 28.341H13.7744C13.9941 28.341 14.1256 28.4631 14.1839 28.5365C14.2421 28.6098 14.3341 28.762 14.289 28.9744H14.2928ZM28.0009 14.3923C28.3615 14.0258 28.7353 13.6649 29.1129 13.3153C29.4998 12.96 30.0013 12.7626 30.5291 12.7626C31.0926 12.7626 31.6223 12.9826 32.0205 13.381L46.6133 27.9838C47.2163 28.5872 47.3966 29.4875 47.0698 30.277C46.7429 31.0664 45.9803 31.5758 45.1276 31.5758H43.1084C42.5467 31.5758 42.0189 31.3578 41.6226 30.9593L28.0216 17.3489C27.2064 16.5332 27.1988 15.2062 28.0047 14.3904L28.0009 14.3923ZM34.1543 38.1507C33.8989 37.9534 33.9533 37.694 33.989 37.5925C34.0247 37.4872 34.1431 37.2447 34.4718 37.2447H42.1635C42.4322 37.2447 42.5467 37.4346 42.5824 37.5173C42.6181 37.6 42.6857 37.8105 42.5073 38.0116L39.6203 41.2822C39.5226 41.3931 39.3836 41.4551 39.2371 41.4551C39.1507 41.4551 39.0699 41.4344 38.9948 41.3912C37.37 40.4721 35.7866 39.412 34.1524 38.1507H34.1543ZM65.068 38.0098L59.1381 45.6128C59.0179 45.7651 58.8601 45.8835 58.6798 45.9549L38.9046 53.7272C38.7299 53.7967 38.5647 53.8324 38.4275 53.8324C37.9448 53.8324 37.6105 53.3794 37.4902 53.1125C37.3043 52.699 37.3625 52.3757 37.6931 52.0017L50.6743 37.4214C50.7701 37.3124 50.9091 37.2504 51.0556 37.2504L64.7073 37.2673C64.9665 37.2673 65.083 37.4477 65.1206 37.5267C65.1581 37.6038 65.2295 37.8068 65.0699 38.0116L65.068 38.0098ZM68.4058 30.277C68.0789 31.0664 67.3163 31.5758 66.4636 31.5758H64.4444C63.8827 31.5758 63.3549 31.3578 62.9567 30.9593L41.4667 9.45451C40.9314 8.91882 40.7266 8.16133 40.9201 7.43015C41.1136 6.69522 41.6677 6.13697 42.4002 5.93585C42.9675 5.77984 43.546 5.63887 44.1189 5.51482C44.2673 5.48286 44.4194 5.46595 44.5697 5.46595C45.1332 5.46595 45.6629 5.68398 46.0592 6.08058L67.9475 27.9838C68.5504 28.5872 68.7307 29.4875 68.4039 30.277H68.4058ZM105.388 28.0064C103.23 30.2713 100.319 31.5326 97.2007 31.557C97.1969 31.557 97.0335 31.557 97.0335 31.557C97.0298 31.557 86.7252 31.557 86.7252 31.557C86.1279 31.557 85.6414 31.0702 85.6414 30.4725V20.9447L85.6489 20.0105C85.6959 13.7401 90.8331 8.63875 97.0993 8.63875C97.257 8.63875 97.4167 8.64251 97.5745 8.64815C103.487 8.88498 108.305 13.7062 108.542 19.6233C108.668 22.7641 107.547 25.7415 105.388 28.0064Z" fill="white"/>
<path d="M100.897 22.1248C103.059 22.1248 104.811 20.371 104.811 18.2077C104.811 16.0443 103.059 14.2905 100.897 14.2905C98.735 14.2905 96.9824 16.0443 96.9824 18.2077C96.9824 20.371 98.735 22.1248 100.897 22.1248Z" fill="white"/>
</svg>
